# xmcd CD database file
#
# Track frame offsets:
#	150
#	21898
#	41045
#	61223
#	77000
#	91028
#	109870
#	125293
#	139810
#	163820
#	185808
#	207004
#
# Disc length: 3083 seconds
#
# Revision: 0
# Processed by: cddbd v1.5.1PL0 Copyright (c) Steve Scherf et al.
# Submitted via: CDex 1.51
#
DISCID=9f0c090c
DTITLE=George Hughley - Nothing But The Blues
DYEAR=2005
DGENRE=Blues
TTITLE0=Get These Blues
TTITLE1=She'll Be Back
TTITLE2=Lonely Street
TTITLE3=She Don't Like My Cadilac
TTITLE4=Sing Like BB
TTITLE5=Something Is Worrying My Baby
TTITLE6=Just Another White Boy
TTITLE7=Dinner Bell
TTITLE8=Lonely As A Man Can Be
TTITLE9=When You Got The Blues
TTITLE10=Belinda
TTITLE11=The Boy's In Black and Blue
EXTD=YEAR: 2005
EXTT0=
EXTT1=
EXTT2=
EXTT3=
EXTT4=
EXTT5=
EXTT6=
EXTT7=
EXTT8=
EXTT9=
EXTT10=
EXTT11=
PLAYORDER=
